<svg width="102" height="25" viewBox="0 0 102 25" fill="none" xmlns="http://www.w3.org/2000/svg">
<path d="M67.6755 16.8697C67.3687 17.1241 67.5835 17.5829 68.0042 17.5829H68.7537C71.2652 17.5867 73.7723 17.579 76.2837 17.5944C80.0882 17.6214 83.4938 17.2128 86.6803 15.5551C93.0532 12.232 95.1561 11.2507 97.9831 6.48967C98.5179 5.37169 98.1672 3.70629 99 3.50582C100.95 3.03165 99.9555 6.34703 99.0526 7.81968C95.9669 12.8776 93.097 13.9938 86.0053 17.1357C83.0117 18.4618 79.4088 18.5852 75.8016 18.5158C73.1192 18.4618 70.4236 18.6315 67.7412 18.724C66.2992 18.7741 65.4621 19.2521 64.9098 20.1696C64.4102 20.9831 63.5949 21.8081 62.5824 22.3748C61.9732 22.7179 59.0234 24.2638 56.9415 24.8536C55.8107 25.1736 54.5527 25.0078 55.6616 23.1959C56.6303 21.6192 59.3785 19.5181 61.4911 19.1134C63.6037 18.7086 64.7301 17.845 65.6418 16.6384C65.8829 16.3223 65.5453 15.9136 65.129 16.0061C64.7915 16.0832 64.4934 16.1642 64.2129 16.2336C60.049 17.2745 55.9027 18.1997 51.7432 19.2521C49.9199 19.7147 48.2018 19.973 46.6677 18.778C46.3302 18.5158 45.2432 18.4387 44.6515 18.5698C42.9904 18.9399 41.3204 19.3678 39.8258 19.9538C36.8848 21.1064 34.049 22.3825 30.9897 23.6778C29.4687 24.3139 25.5153 25.3933 24.4677 24.8536C23.2668 24.2329 22.9337 22.8335 23.8278 21.8929C24.6562 21.0178 25.9492 20.1696 27.2027 19.4372C28.2064 18.8551 30.284 17.872 31.726 17.155C32.1512 16.9429 31.9714 16.3724 31.4805 16.3839C24.3844 16.5651 7.61941 17.3631 0.453173 17.1241C-0.121002 17.1048 -0.164832 16.3415 0.409343 16.2991C0.413726 16.2991 0.418109 16.2991 0.422492 16.2991C2.08804 16.2182 22.8811 15.9445 29.3241 15.3816C29.9377 15.3276 30.5557 15.3045 31.1737 15.3161C35.4077 15.397 38.7257 14.0208 41.7017 12.2089C43.227 11.2798 47.5794 9.84183 48.6664 11.1988C49.841 12.6676 46.1987 14.1595 44.6559 14.6723C43.3585 15.1079 41.8376 15.3199 40.3825 15.505C38.0375 15.798 35.9819 16.4148 34.1235 17.3708C31.5025 18.724 28.8376 20.0386 26.2648 21.4303C25.3531 21.9199 24.3581 22.5367 25.1252 23.4388C25.5284 23.913 27.4701 23.8551 28.728 23.3193C32.3966 21.7772 36.0652 20.2313 39.6636 18.6276C41.5001 17.8026 43.5163 17.4017 45.6859 17.3439C46.6283 17.3207 47.7284 17.4749 48.5042 17.7949C49.5649 18.2382 50.4853 18.3423 51.6424 18.0609C57.1387 16.7309 62.6789 15.4818 68.127 14.0786C70.1694 13.5504 75.2625 11.2798 76.0295 11.0986C76.1873 11.06 76.3626 11.0523 76.5467 11.0639C77.2217 11.0947 77.4935 11.9005 76.9061 12.1934C76.9017 12.1973 76.8974 12.1973 76.893 12.2012C75.5605 12.8488 74.1536 13.4464 72.7028 13.9861C70.8269 14.707 69.2139 15.5782 67.6755 16.8697ZM62.5035 20.0116C61.4911 19.8654 58.2848 21.7943 57.5967 22.7581C56.7683 23.9185 57.428 23.7009 58.2783 23.3655C59.9526 22.7102 60.6627 22.2321 62.0433 21.1219C62.4159 20.825 63.0909 20.0964 62.5035 20.0116ZM42.552 14.0246C44.2746 13.7201 47.4873 12.6985 46.8912 12.178C46.545 11.8311 43.3454 12.5211 42.2452 13.2343C41.2854 13.8511 41.2897 14.2482 42.552 14.0246Z" fill="#17C1FB"/>
<ellipse cx="99.0032" cy="20.3509" rx="1.177" ry="1.17948" fill="#212121"/>
<path d="M10.6773 21.7326C10.2589 21.7326 9.94499 21.6383 9.73574 21.4496C9.5265 21.2504 9.42188 20.9778 9.42188 20.6318C9.42188 20.3592 9.48465 20.1338 9.6102 19.9556C9.73574 19.7668 9.90314 19.6725 10.1124 19.6725C10.1124 19.8088 10.1752 19.966 10.3007 20.1443C10.4262 20.3225 10.6198 20.4116 10.8814 20.4116C11.0278 20.4116 11.1638 20.3907 11.2894 20.3487C11.4254 20.2963 11.5562 20.1967 11.6817 20.0499C11.8073 19.9031 11.9328 19.683 12.0584 19.3894C12.1839 19.0854 12.3147 18.687 12.4507 18.1942C12.5553 17.7853 12.6547 17.3397 12.7489 16.8575C12.843 16.3647 12.9215 15.8667 12.9843 15.3635C13.0575 14.8602 13.115 14.3727 13.1569 13.9009C13.1987 13.4291 13.2301 13.0045 13.2511 12.6271C13.2824 12.2392 13.2981 11.9299 13.2981 11.6992C13.2981 11.5 13.2406 11.3585 13.1255 11.2746C13.0104 11.1803 12.8587 11.1226 12.6704 11.1016C12.4821 11.0702 12.2728 11.0544 12.0427 11.0544H11.8073V10.3939H19.8423V11.0544H19.6382C19.4081 11.0544 19.1936 11.0807 18.9948 11.1331C18.796 11.1855 18.6391 11.2903 18.524 11.4476C18.4089 11.6049 18.3514 11.8512 18.3514 12.1867V19.8297C18.3514 20.1548 18.4089 20.4011 18.524 20.5689C18.6391 20.7261 18.796 20.831 18.9948 20.8834C19.1936 20.9358 19.4081 20.962 19.6382 20.962H19.8423V21.6226H15.2755V20.962H15.4795C15.7201 20.962 15.9346 20.9358 16.1229 20.8834C16.3217 20.831 16.4787 20.7261 16.5937 20.5689C16.7088 20.4011 16.7664 20.1548 16.7664 19.8297V11.1803H14.2083C14.177 11.8303 14.1299 12.517 14.0671 13.2404C14.0043 13.9533 13.9259 14.6663 13.8317 15.3792C13.7375 16.0921 13.6277 16.7736 13.5021 17.4236C13.3766 18.0736 13.2354 18.6608 13.0784 19.185C12.8901 19.8245 12.6861 20.333 12.4664 20.7104C12.2467 21.0774 11.9904 21.3395 11.6974 21.4967C11.4149 21.654 11.0749 21.7326 10.6773 21.7326Z" fill="#212121"/>
<path d="M29.8726 21.6226V20.8834H30.7358C31.0915 20.8834 31.4315 20.8205 31.7558 20.6947C32.0802 20.5584 32.3679 20.3697 32.619 20.1285C32.8701 19.8874 33.0532 19.6096 33.1682 19.2951L29.6059 11.8879C29.5117 11.6783 29.4175 11.5157 29.3234 11.4004C29.2292 11.2746 29.1194 11.1855 28.9938 11.1331C28.8683 11.0807 28.7009 11.0544 28.4916 11.0544H28.2876V10.3939H32.6817V11.0544H32.4307C32.1168 11.0544 31.8814 11.1173 31.7245 11.2432C31.5675 11.3585 31.4891 11.5472 31.4891 11.8093C31.4891 11.8932 31.4995 11.9823 31.5204 12.0767C31.5414 12.171 31.5728 12.2759 31.6146 12.3912L33.3409 16.1183C33.5187 16.4853 33.6704 16.8522 33.796 17.2192C33.932 17.5861 34.0418 17.9321 34.1255 18.2571C34.2092 17.9216 34.3086 17.5966 34.4237 17.2821C34.5388 16.9676 34.68 16.6006 34.8474 16.1812L36.3226 12.5013C36.3749 12.3755 36.4115 12.2549 36.4325 12.1396C36.4534 12.0138 36.4638 11.9089 36.4638 11.825C36.4638 11.5524 36.3749 11.3585 36.1971 11.2432C36.0297 11.1173 35.7733 11.0544 35.4281 11.0544H35.0985V10.3939H38.8806V11.0544H38.5824C38.3837 11.0544 38.2215 11.0911 38.096 11.1645C37.9704 11.2274 37.8553 11.348 37.7507 11.5262C37.6461 11.694 37.5258 11.9456 37.3898 12.2811L34.7376 18.7446C34.4865 19.3632 34.2511 19.8612 34.0314 20.2386C33.8221 20.6161 33.5867 20.9044 33.3252 21.1036C33.0741 21.3028 32.7654 21.4391 32.3993 21.5125C32.0331 21.5859 31.5728 21.6226 31.0183 21.6226H29.8726Z" fill="#212121"/>
<path d="M49.0016 21.6226V20.962H49.3625C49.5927 20.962 49.802 20.9411 49.9903 20.8991C50.1891 20.8467 50.346 20.7471 50.4611 20.6003C50.5866 20.4431 50.6494 20.2124 50.6494 19.9084V11.1803H49.1428C48.8394 11.1803 48.5988 11.2432 48.421 11.369C48.2431 11.4843 48.1123 11.6416 48.0286 11.8408C47.9449 12.0295 47.8874 12.2392 47.856 12.4698L47.7775 13.146H46.9615L47.0399 10.3939H55.8753L55.9538 13.146H55.1377L55.0592 12.4698C55.0383 12.2392 54.9808 12.0295 54.8866 11.8408C54.8029 11.6416 54.6721 11.4843 54.4943 11.369C54.3164 11.2432 54.0706 11.1803 53.7567 11.1803H52.2344V19.8297C52.2344 20.1548 52.292 20.4011 52.4071 20.5689C52.5221 20.7261 52.6791 20.831 52.8779 20.8834C53.0766 20.9358 53.2911 20.962 53.5213 20.962H53.8822V21.6226H49.0016Z" fill="#212121"/>
<path d="M69.6344 21.7798C68.5254 21.7798 67.6048 21.5387 66.8724 21.0564C66.14 20.5741 65.5908 19.8979 65.2246 19.0277C64.8689 18.1575 64.691 17.1405 64.691 15.9768C64.691 14.813 64.8689 13.8013 65.2246 12.9416C65.5908 12.0819 66.14 11.4161 66.8724 10.9444C67.6152 10.4621 68.5411 10.2209 69.6501 10.2209C70.7068 10.2209 71.5961 10.4621 72.318 10.9444C73.0504 11.4161 73.6049 12.0871 73.9815 12.9573C74.3686 13.817 74.5621 14.8288 74.5621 15.9925C74.5621 17.1563 74.3686 18.1732 73.9815 19.0434C73.6049 19.9031 73.0504 20.5741 72.318 21.0564C71.5856 21.5387 70.6911 21.7798 69.6344 21.7798ZM69.6344 20.9306C70.2203 20.9306 70.712 20.8205 71.1096 20.6003C71.5176 20.3802 71.8472 20.0604 72.0983 19.641C72.3494 19.2112 72.5325 18.6922 72.6476 18.0841C72.7626 17.4656 72.8202 16.7684 72.8202 15.9925C72.8202 15.2167 72.7626 14.5247 72.6476 13.9166C72.5325 13.3086 72.3494 12.7948 72.0983 12.3755C71.8577 11.9456 71.5333 11.6206 71.1253 11.4004C70.7277 11.1803 70.236 11.0702 69.6501 11.0702C69.0642 11.0702 68.5673 11.1803 68.1593 11.4004C67.7512 11.6206 67.4164 11.9456 67.1549 12.3755C66.9038 12.7948 66.7207 13.3086 66.6056 13.9166C66.4905 14.5247 66.433 15.2167 66.433 15.9925C66.433 16.7684 66.4905 17.4656 66.6056 18.0841C66.7207 18.6922 66.9038 19.2112 67.1549 19.641C67.4164 20.0604 67.7512 20.3802 68.1593 20.6003C68.5673 20.8205 69.059 20.9306 69.6344 20.9306Z" fill="#212121"/>
<path d="M83.9026 21.6226V20.962H84.1066C84.3368 20.962 84.5461 20.9411 84.7344 20.8991C84.9332 20.8467 85.0901 20.7471 85.2052 20.6003C85.3307 20.4431 85.3935 20.2124 85.3935 19.9084V12.1238C85.3935 11.8093 85.3307 11.5787 85.2052 11.4319C85.0901 11.2746 84.9332 11.175 84.7344 11.1331C84.5461 11.0807 84.3368 11.0544 84.1066 11.0544H83.9026V10.3939H88.4694V11.0544H88.2654C88.0352 11.0544 87.8207 11.0807 87.622 11.1331C87.4232 11.1855 87.2662 11.2903 87.1512 11.4476C87.0361 11.6049 86.9785 11.8512 86.9785 12.1867V15.6151C87.3133 15.6151 87.5644 15.5994 87.7318 15.5679C87.8992 15.5365 88.03 15.484 88.1241 15.4106C88.2183 15.3373 88.3072 15.2481 88.3909 15.1433C88.5269 14.9755 88.6891 14.6977 88.8774 14.3098C89.0762 13.9219 89.3221 13.4396 89.615 12.863C89.887 12.3388 90.159 11.8879 90.4311 11.5105C90.7031 11.1226 90.996 10.8238 91.3099 10.6141C91.6342 10.4044 92.0004 10.2996 92.4084 10.2996C92.7223 10.2996 92.9682 10.3468 93.146 10.4411C93.3343 10.525 93.4703 10.6403 93.554 10.7871C93.6377 10.9339 93.6796 11.1016 93.6796 11.2903C93.6796 11.5839 93.6011 11.825 93.4442 12.0138C93.2977 12.192 93.1251 12.3021 92.9263 12.344C92.8845 12.1029 92.7903 11.8984 92.6438 11.7307C92.4974 11.5524 92.2829 11.4633 92.0004 11.4633C91.8016 11.4633 91.6028 11.5315 91.4041 11.6678C91.2157 11.8041 91.0274 12.0085 90.8391 12.2811C90.6508 12.5537 90.4468 12.8997 90.2271 13.319C90.0073 13.7489 89.819 14.1106 89.6621 14.4042C89.5156 14.6977 89.3744 14.9493 89.2384 15.159C89.1128 15.3582 88.9664 15.5312 88.799 15.678C89.1756 15.6885 89.479 15.7514 89.7092 15.8667C89.9393 15.9715 90.1329 16.1236 90.2898 16.3228C90.4572 16.5115 90.6194 16.7526 90.7763 17.0462L92.2515 19.7039C92.4189 19.9975 92.5915 20.2386 92.7694 20.4273C92.9472 20.6056 93.1408 20.7419 93.35 20.8362C93.5593 20.9201 93.779 20.962 94.0092 20.962H94.0562V21.6226H93.8365C93.1669 21.6226 92.6386 21.5859 92.2515 21.5125C91.8749 21.4286 91.5714 21.2818 91.3413 21.0721C91.1216 20.8624 90.9071 20.5532 90.6979 20.1443L89.2698 17.4079C89.1442 17.1668 89.0187 16.978 88.8931 16.8417C88.778 16.695 88.642 16.5901 88.4851 16.5272C88.3282 16.4538 88.1294 16.4066 87.8887 16.3857C87.6481 16.3542 87.3447 16.3385 86.9785 16.3385V19.8297C86.9785 20.1548 87.0361 20.4011 87.1512 20.5689C87.2662 20.7261 87.4232 20.831 87.622 20.8834C87.8207 20.9358 88.0352 20.962 88.2654 20.962H88.4694V21.6226H83.9026Z" fill="#212121"/>
</svg>
